<?xml version="1.0" standalone="no"?>
<!DOCTYPE svg PUBLIC "-//W3C//DTD SVG 20010904//EN"
 "http://www.w3.org/TR/2001/REC-SVG-20010904/DTD/svg10.dtd">
<svg version="1.0" xmlns="http://www.w3.org/2000/svg"
 width="1024.000000pt" height="1024.000000pt" viewBox="0 0 1024.000000 1024.000000"
 preserveAspectRatio="xMidYMid meet">
<metadata>
Created by potrace 1.16, written by Peter Selinger 2001-2019
</metadata>
<g transform="translate(0.000000,1024.000000) scale(0.100000,-0.100000)"
fill="#56b8de" stroke="none">
<path d="M1755 8416 c-103 -30 -275 -156 -275 -201 0 -8 -6 -18 -12 -22 -29
-18 -41 -58 -65 -216 -9 -60 38 -254 64 -264 7 -3 13 -11 13 -18 0 -18 78
-108 100 -117 10 -4 24 -15 31 -25 21 -29 142 -83 208 -94 32 -5 72 -16 87
-24 16 -8 41 -15 56 -15 15 0 29 -4 32 -9 3 -4 26 -11 51 -14 25 -4 59 -13 75
-22 16 -8 40 -15 54 -15 14 0 27 -4 30 -9 3 -4 24 -11 48 -15 23 -4 56 -13 72
-20 17 -8 63 -22 101 -31 39 -10 82 -24 96 -31 15 -7 51 -18 80 -23 61 -11
103 -22 169 -44 25 -8 61 -20 80 -25 111 -32 195 -57 275 -82 50 -16 111 -32
135 -36 25 -4 50 -10 55 -14 15 -10 104 -37 150 -46 22 -3 45 -10 50 -15 11
-8 49 -19 155 -44 30 -7 66 -18 80 -24 14 -6 63 -20 110 -31 47 -11 111 -28
144 -38 56 -17 60 -20 94 -82 70 -129 172 -333 172 -346 0 -7 4 -14 9 -16 5
-1 12 -20 16 -40 l7 -37 -66 -31 c-36 -17 -66 -36 -66 -41 0 -5 -5 -9 -11 -9
-15 0 -97 -39 -104 -49 -3 -5 -19 -12 -35 -16 -17 -4 -30 -10 -30 -15 0 -4 -8
-11 -17 -14 -10 -4 -36 -17 -58 -30 -76 -44 -150 -87 -205 -117 -30 -16 -80
-45 -110 -64 -30 -19 -64 -38 -75 -44 -11 -5 -36 -20 -55 -32 -19 -13 -56 -34
-82 -47 -27 -13 -48 -27 -48 -32 0 -5 -10 -12 -22 -16 -13 -3 -42 -19 -66 -35
-24 -16 -46 -29 -50 -29 -4 0 -20 -12 -37 -26 -16 -14 -44 -32 -61 -40 -17 -8
-41 -24 -52 -34 -12 -11 -24 -20 -28 -20 -4 0 -45 -26 -91 -57 -46 -32 -95
-65 -108 -73 -115 -71 -191 -121 -250 -164 -38 -28 -83 -60 -98 -69 -16 -10
-36 -25 -45 -34 -33 -29 -124 -93 -134 -93 -6 0 -19 -11 -30 -25 -11 -14 -26
-25 -33 -25 -8 0 -18 -6 -22 -14 -4 -8 -36 -35 -71 -61 -35 -26 -61 -50 -58
-53 6 -5 110 16 216 43 30 8 91 19 135 25 141 18 203 28 237 39 89 30 706 55
1024 42 453 -20 578 -31 799 -71 28 -5 86 -12 130 -16 44 -4 91 -11 105 -16
14 -6 68 -16 120 -24 214 -31 279 -42 289 -48 10 -7 56 -14 244 -40 59 -8 112
-18 117 -21 12 -8 93 -17 327 -40 90 -8 175 -20 190 -26 33 -12 653 -25 747
-15 l70 8 -70 34 c-38 18 -74 34 -80 34 -6 0 -17 7 -24 15 -7 8 -21 15 -31 15
-11 0 -19 4 -19 9 0 5 -13 12 -30 16 -16 4 -30 10 -30 13 0 4 -21 18 -47 32
-26 14 -55 31 -63 38 -8 6 -34 28 -56 47 -23 19 -44 35 -48 35 -10 0 -206 197
-206 207 0 4 -14 19 -30 32 -17 13 -30 29 -30 37 0 7 -8 19 -18 26 -10 7 -39
42 -64 78 -26 36 -53 72 -60 80 -7 9 -19 28 -27 43 -8 15 -21 35 -30 44 -9 10
-25 38 -36 63 -11 25 -22 47 -26 50 -3 3 -21 33 -39 68 -19 34 -37 62 -42 62
-4 0 -8 7 -8 15 0 8 -9 30 -19 48 -50 88 -99 200 -106 241 -4 20 -11 36 -15
36 -5 0 -11 10 -15 23 -3 12 -10 31 -14 42 -5 11 -25 65 -46 120 -21 55 -46
118 -56 141 -11 23 -19 49 -19 58 0 9 -4 24 -9 34 -29 57 -51 111 -51 126 0 9
-4 24 -9 34 -24 44 -51 110 -51 123 0 8 -4 19 -9 25 -4 5 -14 30 -21 57 -7 26
-17 47 -21 47 -5 0 -9 11 -9 23 0 25 -34 132 -48 151 -4 6 -16 38 -27 71 -10
33 -23 65 -28 72 -5 7 -15 31 -22 55 -32 104 -77 214 -90 224 -8 6 -15 15 -15
21 0 18 -78 90 -120 110 -34 17 -64 36 -71 45 -3 5 -25 12 -50 17 -24 5 -73
17 -109 26 -36 10 -96 23 -135 30 -38 7 -83 18 -100 24 -16 6 -66 17 -110 26
-44 9 -101 23 -128 31 -26 8 -70 18 -98 21 -27 3 -52 10 -55 14 -3 5 -17 9
-30 9 -14 0 -58 9 -97 19 -40 11 -99 25 -132 31 -72 14 -132 29 -163 41 -13 5
-35 9 -51 9 -15 0 -65 11 -111 25 -46 14 -118 32 -159 40 -42 8 -116 24 -166
35 -49 12 -112 25 -140 30 -72 12 -187 40 -207 51 -10 5 -31 9 -47 9 -17 0
-54 8 -83 19 -54 19 -122 35 -193 46 -22 3 -58 12 -80 20 -51 17 -177 45 -202
45 -10 0 -24 5 -31 12 -18 18 -99 30 -232 33 -76 2 -141 -1 -165 -9z"/>
<path d="M7055 7600 c-11 -5 -36 -9 -56 -9 -33 -1 -124 -27 -174 -50 -11 -5
-33 -12 -49 -16 -15 -3 -40 -14 -55 -24 -14 -10 -52 -33 -84 -52 -32 -19 -73
-46 -90 -61 -17 -16 -33 -28 -36 -28 -10 0 -191 -185 -191 -196 0 -3 -20 -36
-45 -74 -25 -38 -45 -74 -45 -80 0 -6 -7 -18 -15 -26 -8 -9 -18 -27 -21 -42
-3 -15 -10 -36 -14 -47 -41 -91 -52 -155 -57 -315 -8 -245 3 -306 90 -515 12
-27 34 -69 49 -93 15 -24 28 -47 28 -53 0 -5 5 -9 10 -9 6 0 10 -5 10 -11 0
-31 242 -279 273 -279 4 0 20 -11 35 -25 15 -14 36 -28 47 -31 11 -3 47 -18
80 -34 111 -53 155 -70 178 -70 13 0 29 -6 35 -12 10 -10 73 -13 247 -13 174
0 237 3 246 13 7 6 24 12 39 12 14 0 37 6 51 14 14 7 51 21 82 31 31 10 62 24
68 31 6 7 27 18 47 25 20 7 39 15 42 19 3 4 24 19 48 34 23 14 42 31 42 36 0
6 6 10 13 10 13 0 133 112 177 165 56 67 90 113 90 121 0 4 15 40 34 79 47 98
74 163 85 210 30 125 36 172 36 290 0 238 -59 423 -201 630 -54 78 -167 191
-241 241 -32 21 -60 42 -63 45 -3 4 -31 18 -62 33 -32 15 -58 31 -58 36 0 5
-17 12 -37 16 -21 4 -42 10 -48 14 -19 14 -111 42 -170 52 -83 13 -346 20
-370 8z"/>
<path d="M8020 4491 c-63 -4 -151 -13 -195 -19 -44 -7 -136 -16 -205 -22 -223
-18 -398 -38 -410 -45 -12 -8 -42 -12 -215 -35 -44 -5 -102 -16 -130 -24 -45
-13 -153 -33 -272 -51 -24 -4 -45 -11 -49 -16 -3 -5 -21 -9 -40 -9 -41 0 -163
-25 -214 -44 -19 -8 -60 -17 -90 -20 -30 -4 -64 -11 -75 -15 -27 -11 -107 -31
-185 -47 -85 -17 -191 -44 -212 -55 -10 -5 -26 -9 -35 -9 -10 0 -61 -13 -113
-29 -95 -28 -152 -43 -310 -83 -47 -11 -94 -24 -105 -29 -43 -17 -159 -49
-178 -49 -10 0 -31 -7 -45 -15 -15 -8 -47 -18 -72 -24 -25 -5 -70 -17 -100
-26 -30 -9 -80 -22 -110 -30 -30 -7 -93 -25 -140 -39 -47 -15 -101 -31 -120
-36 -19 -5 -66 -18 -105 -29 -38 -10 -95 -25 -125 -31 -30 -7 -82 -19 -115
-27 -86 -21 -171 -38 -325 -68 -74 -15 -160 -33 -190 -41 -54 -15 -118 -25
-271 -43 -42 -5 -105 -16 -140 -25 -76 -18 -104 -22 -270 -39 -69 -8 -130 -17
-136 -20 -13 -8 -156 -22 -443 -42 -118 -8 -256 -20 -307 -25 -113 -12 -469
-12 -618 0 -60 5 -180 14 -265 20 -246 15 -312 24 -660 81 -36 6 -92 18 -125
27 -33 8 -80 18 -105 22 -62 10 -161 30 -182 36 -17 5 -18 -16 -18 -349 0
-330 1 -355 18 -370 10 -10 22 -17 27 -17 7 0 62 -25 220 -100 108 -52 195
-90 205 -90 8 0 71 -26 120 -50 9 -4 31 -11 50 -15 19 -4 40 -11 45 -15 6 -4
33 -14 60 -23 28 -9 73 -23 100 -32 73 -23 114 -35 165 -46 25 -6 74 -18 110
-29 36 -10 92 -23 125 -30 59 -11 106 -22 175 -40 19 -5 54 -10 77 -10 23 0
45 -4 48 -10 3 -5 21 -10 40 -10 19 0 91 -9 162 -19 187 -28 436 -41 793 -41
387 0 593 13 920 61 30 4 93 12 140 18 47 6 101 15 120 21 19 6 60 15 90 20
141 23 225 41 234 50 5 5 23 10 39 10 36 0 159 27 207 45 19 8 58 17 85 20 49
6 119 26 160 45 11 5 40 13 65 19 59 13 105 25 160 44 25 8 77 25 115 37 39
13 75 26 80 30 6 4 29 10 53 14 24 3 65 17 92 30 27 13 64 26 84 30 19 4 60
18 89 31 30 13 72 27 93 31 22 3 46 12 54 18 8 7 42 20 75 31 33 11 74 27 90
37 17 10 40 18 53 18 12 0 22 5 22 10 0 6 7 10 15 10 9 0 35 9 57 20 23 11 47
20 53 20 6 0 38 13 71 28 32 16 72 32 88 36 16 4 58 20 92 37 35 16 67 29 72
29 5 0 36 14 70 30 34 17 67 30 72 30 6 0 36 14 67 30 31 17 61 30 68 30 7 0
39 13 71 30 32 16 65 30 73 30 8 0 33 8 55 19 90 41 114 51 124 51 5 0 15 7
22 15 7 8 23 15 36 15 12 0 26 5 29 10 3 6 14 10 23 10 10 0 34 9 55 19 20 10
49 22 64 26 14 3 55 19 89 36 35 16 70 29 79 29 8 0 23 4 33 9 60 30 116 51
135 51 13 0 27 4 33 9 5 5 47 21 94 36 47 15 110 36 140 47 30 11 78 26 105
34 102 27 241 66 270 76 17 5 64 19 105 29 41 10 93 24 115 30 49 13 161 36
235 48 30 5 69 14 85 20 17 5 71 15 120 21 50 6 128 17 175 25 47 8 135 19
195 25 61 6 153 15 205 20 121 13 688 13 800 1 47 -6 131 -12 188 -15 l102 -5
0 163 0 163 -27 13 c-25 11 -83 27 -184 49 -19 4 -41 11 -48 15 -12 8 -113 29
-218 46 -28 4 -57 11 -63 15 -13 8 -176 31 -360 51 -74 7 -155 18 -180 24 -56
12 -982 21 -1140 11z"/>
<path d="M9355 3565 c-5 -2 -77 -8 -160 -15 -82 -7 -168 -17 -190 -22 -22 -6
-85 -17 -140 -24 -178 -24 -221 -31 -271 -46 -56 -18 -130 -34 -192 -43 -24
-4 -56 -13 -70 -21 -15 -8 -34 -14 -43 -14 -30 0 -172 -39 -182 -49 -6 -6 -21
-11 -33 -11 -27 0 -146 -38 -158 -50 -6 -6 -18 -10 -27 -10 -20 0 -112 -27
-154 -45 -16 -8 -60 -23 -98 -35 -37 -12 -79 -28 -95 -36 -15 -7 -33 -14 -40
-14 -11 0 -85 -30 -124 -51 -10 -5 -24 -9 -33 -9 -8 0 -44 -13 -79 -30 -36
-16 -78 -33 -93 -36 -15 -4 -37 -13 -48 -19 -11 -7 -42 -20 -70 -30 -53 -19
-128 -50 -157 -66 -10 -5 -24 -9 -32 -9 -7 0 -19 -7 -26 -15 -7 -8 -20 -15
-29 -15 -9 0 -47 -16 -84 -35 -37 -19 -72 -35 -78 -35 -6 0 -38 -13 -71 -30
-32 -16 -65 -30 -72 -30 -7 0 -38 -13 -69 -30 -31 -16 -62 -30 -68 -30 -6 0
-39 -13 -73 -29 -86 -40 -161 -70 -231 -93 -33 -10 -70 -25 -81 -33 -12 -8
-52 -24 -88 -35 -36 -12 -68 -26 -72 -31 -3 -5 -15 -9 -28 -9 -12 0 -26 -4
-31 -9 -6 -4 -31 -14 -58 -21 -26 -7 -50 -17 -53 -21 -3 -5 -16 -9 -29 -9 -13
0 -26 -4 -29 -8 -3 -5 -30 -14 -61 -21 -30 -7 -55 -17 -55 -22 0 -5 -9 -9 -20
-9 -22 0 -139 -38 -155 -50 -5 -4 -30 -11 -55 -14 -25 -4 -54 -11 -65 -16 -51
-22 -138 -50 -156 -50 -10 0 -27 -4 -37 -9 -29 -16 -151 -51 -176 -51 -12 0
-49 -9 -82 -19 -32 -10 -102 -27 -154 -36 -52 -9 -117 -23 -145 -30 -27 -8
-93 -21 -145 -30 -52 -9 -117 -21 -145 -27 -65 -14 -136 -24 -320 -43 -82 -8
-162 -20 -178 -25 -15 -5 -107 -12 -205 -15 -230 -7 -313 -15 -287 -26 11 -4
37 -8 57 -8 20 -1 49 -6 65 -12 28 -10 156 -23 408 -39 179 -11 756 -11 990 0
286 15 452 27 464 35 7 4 72 13 144 21 232 24 295 32 314 42 10 5 47 12 83 16
74 8 151 21 230 42 30 7 84 18 120 24 36 5 83 14 105 19 53 12 140 31 190 42
22 4 70 14 106 22 36 8 72 18 79 22 8 5 46 14 84 21 39 6 96 19 126 29 30 9
81 22 112 28 31 7 60 15 64 20 4 4 16 7 26 7 10 0 26 4 36 9 9 5 35 14 57 19
65 17 189 54 210 63 11 4 36 11 55 15 19 3 40 10 45 14 6 4 46 18 89 30 44 12
93 28 110 35 17 8 58 22 91 31 33 9 67 23 75 29 8 7 32 16 54 19 21 4 46 11
55 16 44 22 194 78 286 106 52 16 108 38 137 54 10 6 25 10 34 10 14 0 98 31
134 50 9 4 36 11 60 15 25 4 54 13 65 20 11 6 49 20 85 30 36 9 81 23 100 30
19 8 62 21 95 30 33 9 84 25 113 36 30 10 64 19 77 19 13 0 27 5 30 10 3 6 15
10 26 10 11 0 48 8 82 19 34 10 87 24 117 31 30 6 84 20 120 30 36 9 110 25
165 35 55 9 120 23 145 31 25 7 77 16 115 19 39 3 90 10 115 15 75 15 221 39
283 45 l57 6 0 208 0 207 -167 12 c-147 11 -691 16 -718 7z"/>
</g>
</svg>
